<?xml version="1.0"?>
<svg width="606px" height="399px" viewBox="0 0 606 399"
  xmlns="http://www.w3.org/2000/svg" version="1.2" baseProfile="tiny">
<rect x="192" y="294" width="3" height="3" fill="black"/>

<rect x="105" y="306" width="3" height="3" fill="black"/>

<rect x="111" y="303" width="3" height="3" fill="black"/>

<rect x="342" y="129" width="3" height="3" fill="black"/>

<rect x="84" y="330" width="3" height="3" fill="black"/>

<rect x="204" y="240" width="3" height="3" fill="black"/>

<rect x="357" y="111" width="3" height="3" fill="black"/>

<rect x="198" y="261" width="3" height="3" fill="black"/>

<rect x="186" y="249" width="3" height="3" fill="black"/>

<rect x="192" y="243" width="3" height="3" fill="black"/>

<rect x="276" y="210" width="3" height="3" fill="black"/>

<rect x="111" y="315" width="3" height="3" fill="black"/>

<rect x="159" y="270" width="3" height="3" fill="black"/>

<rect x="144" y="183" width="3" height="3" fill="black"/>

<rect x="168" y="261" width="3" height="3" fill="black"/>

<rect x="318" y="141" width="3" height="3" fill="black"/>

<rect x="342" y="135" width="3" height="3" fill="black"/>

<rect x="99" y="294" width="3" height="3" fill="black"/>

<rect x="81" y="318" width="3" height="3" fill="black"/>

<rect x="96" y="324" width="3" height="3" fill="black"/>

<rect x="225" y="246" width="3" height="3" fill="black"/>

<rect x="90" y="333" width="3" height="3" fill="black"/>

<rect x="252" y="228" width="3" height="3" fill="black"/>

<rect x="120" y="291" width="3" height="3" fill="black"/>

<rect x="105" y="300" width="3" height="3" fill="black"/>

<rect x="108" y="318" width="3" height="3" fill="black"/>

<rect x="387" y="96" width="3" height="3" fill="black"/>

<rect x="120" y="312" width="3" height="3" fill="black"/>

<rect x="129" y="162" width="3" height="3" fill="black"/>

<rect x="171" y="315" width="3" height="3" fill="black"/>

<rect x="102" y="273" width="3" height="3" fill="black"/>

<rect x="126" y="255" width="3" height="3" fill="black"/>

<rect x="111" y="321" width="3" height="3" fill="black"/>

<rect x="168" y="282" width="3" height="3" fill="black"/>

<rect x="165" y="270" width="3" height="3" fill="black"/>

<rect x="66" y="213" width="3" height="3" fill="black"/>

<rect x="207" y="252" width="3" height="3" fill="black"/>

<rect x="111" y="285" width="3" height="3" fill="black"/>

<rect x="108" y="204" width="3" height="3" fill="black"/>

<rect x="141" y="318" width="3" height="3" fill="black"/>

<rect x="288" y="147" width="3" height="3" fill="black"/>

<rect x="144" y="288" width="3" height="3" fill="black"/>

<rect x="141" y="282" width="3" height="3" fill="black"/>

<rect x="342" y="129" width="3" height="3" fill="black"/>

<rect x="417" y="81" width="3" height="3" fill="black"/>

<rect x="165" y="171" width="3" height="3" fill="black"/>

<rect x="132" y="282" width="3" height="3" fill="black"/>

<rect x="168" y="261" width="3" height="3" fill="black"/>

<rect x="120" y="303" width="3" height="3" fill="black"/>

<rect x="93" y="270" width="3" height="3" fill="black"/>

<rect x="225" y="246" width="3" height="3" fill="black"/>

<rect x="243" y="246" width="3" height="3" fill="black"/>

<rect x="300" y="189" width="3" height="3" fill="black"/>

<rect x="165" y="288" width="3" height="3" fill="black"/>

<rect x="174" y="252" width="3" height="3" fill="black"/>

<rect x="183" y="315" width="3" height="3" fill="black"/>

<rect x="138" y="174" width="3" height="3" fill="black"/>

<rect x="129" y="255" width="3" height="3" fill="black"/>

<rect x="129" y="279" width="3" height="3" fill="black"/>

<rect x="228" y="246" width="3" height="3" fill="black"/>

<rect x="327" y="153" width="3" height="3" fill="black"/>

<rect x="330" y="159" width="3" height="3" fill="black"/>

<rect x="126" y="126" width="3" height="3" fill="black"/>

<rect x="129" y="252" width="3" height="3" fill="black"/>

<rect x="123" y="291" width="3" height="3" fill="black"/>

<rect x="126" y="294" width="3" height="3" fill="black"/>

<rect x="270" y="180" width="3" height="3" fill="black"/>

<rect x="99" y="318" width="3" height="3" fill="black"/>

<rect x="360" y="108" width="3" height="3" fill="black"/>

<rect x="90" y="210" width="3" height="3" fill="black"/>

<rect x="321" y="180" width="3" height="3" fill="black"/>

<rect x="135" y="291" width="3" height="3" fill="black"/>

<rect x="240" y="213" width="3" height="3" fill="black"/>

<rect x="141" y="186" width="3" height="3" fill="black"/>

<rect x="81" y="309" width="3" height="3" fill="black"/>

<rect x="63" y="213" width="3" height="3" fill="black"/>

<rect x="120" y="219" width="3" height="3" fill="black"/>

<rect x="126" y="255" width="3" height="3" fill="black"/>

<rect x="87" y="327" width="3" height="3" fill="black"/>

<rect x="93" y="312" width="3" height="3" fill="black"/>

<rect x="0" y="0" width="3" height="3" fill="green"/>

<rect x="0" y="396" width="3" height="3" fill="blue"/>

<rect x="603" y="0" width="3" height="3" fill="red"/>

<rect x="603" y="396" width="3" height="3" fill="red"/>

</svg>
